<svg width="1440" height="590" viewBox="0 0 1440 590" fill="none" xmlns="http://www.w3.org/2000/svg">
<g clip-path="url(#clip0)">
<path d="M149.141 198.581L-114.617 55.6762L57.6606 -53.5L149.141 198.581Z" fill="#121212" stroke="black" stroke-width="4" stroke-linejoin="round"/>
<path d="M208.58 320L382.563 182.5L149.141 198.581L208.58 320Z" fill="#121212" stroke="black" stroke-width="4" stroke-linejoin="round"/>
<path d="M555.374 438.355L206.574 317.5L383.064 182.5L555.374 438.355Z" fill="#121212" stroke="black" stroke-width="4" stroke-linejoin="round"/>
<path d="M711.476 146L722.508 320L1357.27 292.5L711.476 146Z" fill="#121212" stroke="black" stroke-width="4" stroke-linejoin="round"/>
<path d="M710.975 146L722.284 319.938L550.529 437.5L710.975 146Z" fill="#121212" stroke="black" stroke-width="4" stroke-linejoin="round"/>
<path d="M-114.617 55.6761L149.141 198.581L208.078 319.074L553.037 437.5L721.705 319.074L1357.77 291L1507.19 366" stroke="#4AA8FF" stroke-width="4" stroke-linejoin="round"/>
</g>
<defs>
<clipPath id="clip0">
<rect width="1143.92" height="1509.63" fill="white" transform="matrix(0.546963 -0.837157 0.894882 0.446302 -270.751 283.641)"/>
</clipPath>
</defs>
</svg>
