<svg width="1440" height="1059" viewBox="0 0 1440 1059" fill="none" xmlns="http://www.w3.org/2000/svg">
<g clip-path="url(#clip0)">
<path d="M1297.95 1526.15L279.408 1255.16L1051.75 860.48L1297.95 1526.15Z" fill="#121212" stroke="black" stroke-width="4" stroke-linejoin="round"/>
<path d="M1923.56 1631.88L1297.95 1526.15L1051.75 860.479L1923.56 1631.88Z" fill="#121212" stroke="black" stroke-width="4" stroke-linejoin="round"/>
<path d="M-233.862 947.262L-118.284 275.58L279.408 1255.16L-233.862 947.262Z" fill="#121212" stroke="black" stroke-width="4" stroke-linejoin="round"/>
<path d="M872.305 453.55L-118.093 275.613L320.239 696.847L872.305 453.55Z" fill="#121212" stroke="black" stroke-width="4" stroke-linejoin="round"/>
<path d="M-374.121 1174.04L279.409 1255.16L-233.862 947.262L-374.121 1174.04Z" fill="#121212" stroke="black" stroke-width="4" stroke-linejoin="round"/>
<path d="M320.239 696.847L279.409 1255.16L-118.093 275.613L320.239 696.847Z" fill="#121212" stroke="black" stroke-width="4" stroke-linejoin="round"/>
<path d="M320.238 696.847L279.408 1255.16L1051.75 860.48L320.238 696.847Z" fill="#121212" stroke="black" stroke-width="4" stroke-linejoin="round"/>
<path d="M320.238 696.847L872.304 453.55L1051.75 860.479L320.238 696.847Z" fill="#121212" stroke="black" stroke-width="4" stroke-linejoin="round"/>
<path d="M1577.76 453.889L1952.87 829.621L1051.75 860.479L1577.76 453.889Z" fill="#121212" stroke="black" stroke-width="4" stroke-linejoin="round"/>
<path d="M872.304 453.55L1577.95 453.923L1051.75 860.479L872.304 453.55Z" fill="#121212" stroke="black" stroke-width="4" stroke-linejoin="round"/>
<path d="M1923.56 1631.88L1051.75 860.48L1953.06 829.654L1923.56 1631.88Z" fill="#121212" stroke="black" stroke-width="4" stroke-linejoin="round"/>
<path d="M437.236 2242.07L173.322 1865.96L279.408 1255.16L-233.862 947.262L-118.284 275.58" stroke="#4AA8FF" stroke-width="4" stroke-linejoin="round"/>
</g>
<defs>
<clipPath id="clip0">
<rect width="2440.45" height="2124.86" fill="white" transform="translate(-180.121) rotate(9.94256)"/>
</clipPath>
</defs>
</svg>
