<svg width="1440" height="1038" viewBox="0 0 1440 1038" fill="none" xmlns="http://www.w3.org/2000/svg">
<g clip-path="url(#clip0)">
<path d="M109.726 278.582L-153.3 135.676L8.49405 517.769L109.726 278.582Z" fill="#121212" stroke="black" stroke-width="4" stroke-linejoin="round"/>
<path d="M169 400L8.49439 517.769L109.726 278.582L169 400Z" fill="#121212" stroke="black" stroke-width="4" stroke-linejoin="round"/>
<path d="M514.831 518.355L167 397.5L376.767 624.681L514.831 518.355Z" fill="#121212" stroke="black" stroke-width="4" stroke-linejoin="round"/>
<path d="M765.072 595.062L681.5 400L1314.5 372.5L765.072 595.062Z" fill="#121212" stroke="black" stroke-width="4" stroke-linejoin="round"/>
<path d="M765.072 595.062L681.277 399.938L510 517.5L765.072 595.062Z" fill="#121212" stroke="black" stroke-width="4" stroke-linejoin="round"/>
<path d="M-153.3 135.676L109.726 278.582L168.5 399.074L512.5 517.5L680.699 399.074L1315 371L1464 446" stroke="#4AA8FF" stroke-width="4" stroke-linejoin="round"/>
</g>
<defs>
<clipPath id="clip0">
<rect width="1142.97" height="1506.27" fill="white" transform="matrix(0.545897 -0.837852 0.894385 0.447297 -309 363.641)"/>
</clipPath>
</defs>
</svg>
