<svg width="1440" height="527" viewBox="0 0 1440 527" fill="none" xmlns="http://www.w3.org/2000/svg">
<g clip-path="url(#clip0)">
<path d="M153.045 155.582L-110.53 12.6769L51.6017 394.769L153.045 155.582Z" fill="#121212" stroke="black" stroke-width="4" stroke-linejoin="round"/>
<path d="M212.444 277.001L51.6028 394.769L153.046 155.582L212.444 277.001Z" fill="#121212" stroke="black" stroke-width="4" stroke-linejoin="round"/>
<path d="M558.996 395.356L210.439 274.5L420.644 501.681L558.996 395.356Z" fill="#121212" stroke="black" stroke-width="4" stroke-linejoin="round"/>
<path d="M809.759 472.063L726.013 277.001L1360.33 249.501L809.759 472.063Z" fill="#121212" stroke="black" stroke-width="4" stroke-linejoin="round"/>
<path d="M809.76 472.063L725.79 276.938L554.155 394.5L809.76 472.063Z" fill="#121212" stroke="black" stroke-width="4" stroke-linejoin="round"/>
<path d="M-110.529 12.6767L153.046 155.582L211.942 276.075L556.66 394.501L725.211 276.075L1360.84 248.001L1510.15 323L1510.15 -214L-110.529 -214L-110.529 12.6767Z" fill="#1C1C1C" stroke="#4AA8FF" stroke-width="4" stroke-linejoin="round"/>
</g>
<defs>
<clipPath id="clip0">
<rect width="1017.48" height="1435.4" fill="white" transform="matrix(0.669753 -0.742584 0.940503 0.339786 -322.772 325.571)"/>
</clipPath>
</defs>
</svg>
