<svg width="117" height="53" viewBox="0 0 117 53" fill="none" xmlns="http://www.w3.org/2000/svg">
<path d="M19.3391 33.3867H27.6222C29.0337 33.3867 30.3826 33.1199 31.6487 32.5732C32.8903 32.0429 33.9879 31.3121 34.9225 30.3774C35.8646 29.4354 36.6037 28.3413 37.1369 27.1084L37.1387 27.1042L37.1405 27.1C37.6862 25.8211 37.9524 24.4598 37.9524 23.0358C37.9524 21.6349 37.6845 20.2933 37.1389 19.03C36.6079 17.7865 35.8694 16.6892 34.9226 15.7561C33.9921 14.8119 32.8982 14.0749 31.659 13.5442C30.391 12.9811 29.0384 12.7056 27.6222 12.7056H19.3391V20.7018H27.6222C27.9751 20.7018 28.2701 20.766 28.5286 20.8778C28.8184 21.0032 29.0506 21.166 29.2436 21.3662L29.2554 21.3785L29.2675 21.3905C29.4824 21.6054 29.6522 21.8542 29.7802 22.1501C29.8944 22.4142 29.9563 22.7031 29.9563 23.0358C29.9563 23.3653 29.8955 23.6651 29.7766 23.9506C29.649 24.2428 29.4803 24.4889 29.2675 24.7018L29.2554 24.7138L29.2436 24.7261C29.0506 24.9263 28.8184 25.0891 28.5286 25.2145C28.2701 25.3263 27.9751 25.3905 27.6222 25.3905H19.3391V33.3867Z" fill="white"/>
<path d="M17.4587 20.7018V12.7056H10.3509C10.0214 12.7056 9.72161 12.6449 9.43607 12.5259C9.14385 12.3983 8.89778 12.2296 8.68494 12.0168C8.47209 11.804 8.3034 11.5579 8.17586 11.2656C8.05689 10.9801 7.99615 10.6803 7.99615 10.3509C7.99615 10.0182 8.05804 9.72924 8.17224 9.46516L8.17583 9.45685L8.17934 9.44851C8.30927 9.13992 8.47839 8.8915 8.68494 8.68494C8.89778 8.47211 9.14385 8.30343 9.43607 8.17589C9.72161 8.0569 10.0214 7.99615 10.3509 7.99615H17.4587V0H10.3509C8.9435 0 7.59328 0.277393 6.3184 0.836739C5.07507 1.36861 3.97371 2.10679 3.02992 3.05058C2.09885 3.98165 1.36368 5.07384 0.820352 6.30867L0.816102 6.31833L0.81196 6.32804C0.268656 7.60141 0 8.94812 0 10.3509C0 11.7643 0.267463 13.1182 0.81196 14.3944L0.816102 14.4041L0.820352 14.4137C1.36239 15.6456 2.09415 16.7398 3.018 17.6805L3.02987 17.6925L3.04195 17.7044C3.98707 18.6327 5.08785 19.3606 6.32804 19.8898C7.60141 20.4331 8.94812 20.7018 10.3509 20.7018H17.4587Z" fill="white"/>
<path d="M19.3391 0V7.99615H35.8452V0H19.3391Z" fill="white"/>
<path d="M17.4587 25.3905V33.3867H0V25.3905H17.4587Z" fill="white"/>
<path d="M58.8291 33.3867H62.8467C65.1276 33.3867 67.2538 32.9538 69.1939 32.0559C71.0872 31.1796 72.7236 29.9735 74.0842 28.4398C75.4538 26.9117 76.4959 25.1286 77.219 23.1131C77.9445 21.0911 78.3005 18.9466 78.3005 16.6933C78.3005 14.4532 77.9443 12.3218 77.2182 10.3128C76.4957 8.29963 75.4548 6.51831 74.0872 4.99147C72.7284 3.44526 71.0931 2.23139 69.1996 1.35414C67.2584 0.440797 65.1301 0 62.8467 0H58.8291V7.99615H62.8467C64.0598 7.99615 65.0696 8.22934 65.9185 8.64871L65.9307 8.6547L65.9429 8.66052C66.8589 9.09674 67.6168 9.68648 68.237 10.435L68.2463 10.4463L68.2558 10.4574C68.8986 11.2091 69.4039 12.1074 69.7604 13.1768C70.1184 14.2509 70.3043 15.4191 70.3043 16.6933C70.3043 17.966 70.1189 19.1421 69.7597 20.2327C69.4026 21.303 68.8953 22.2118 68.2471 22.9808L68.2455 22.9828C67.6254 23.7206 66.865 24.3077 65.9429 24.7468L65.9389 24.7487L65.935 24.7506C65.0822 25.1616 64.0665 25.3905 62.8467 25.3905H58.8291V33.3867Z" fill="white"/>
<path d="M56.9486 7.99615H52.9921C51.78 7.99615 50.7492 8.22906 49.8631 8.65645L49.8589 8.6585L49.8546 8.66052C48.9361 9.09792 48.1674 9.69088 47.5306 10.4461C46.8955 11.2019 46.3856 12.1072 46.0136 13.1855C45.6574 14.2572 45.4725 15.4225 45.4725 16.6933C45.4725 17.9629 45.6571 19.1364 46.0146 20.2248C46.3855 21.2989 46.8943 22.211 47.5305 22.9817C48.1648 23.7204 48.9319 24.3068 49.8506 24.7449C50.7396 25.1625 51.775 25.3905 52.9921 25.3905H56.9486V33.3867H52.9921C50.6991 33.3867 48.5612 32.9544 46.6089 32.0583C44.7018 31.1829 43.0511 29.9775 41.6757 28.444L41.672 28.4399L41.6685 28.4359C40.3137 26.9079 39.28 25.126 38.5578 23.1131C37.8324 21.0911 37.4764 18.9466 37.4764 16.6933C37.4764 14.4532 37.8326 12.3218 38.5586 10.3128C39.2808 8.30076 40.3142 6.51959 41.6685 4.99212L41.6693 4.9912C43.0435 3.4432 44.6943 2.22881 46.6032 1.35168C48.5566 0.44011 50.6967 0 52.9921 0H56.9486V7.99615Z" fill="white"/>
<path d="M96.4386 0H88.8157C87.4082 0 86.0579 0.277431 84.783 0.836852C83.5398 1.36871 82.4385 2.10686 81.4948 3.05058C80.5637 3.98165 79.8285 5.07384 79.2852 6.30867L79.2809 6.31833L79.2768 6.32804C78.7335 7.60141 78.4648 8.94812 78.4648 10.3509C78.4648 11.7643 78.7323 13.1182 79.2768 14.3944L79.2809 14.4041L79.2852 14.4137C79.8272 15.6456 80.559 16.7398 81.4828 17.6805L81.4947 17.6925L81.5068 17.7044C82.4519 18.6327 83.5527 19.3606 84.7929 19.8898C86.0663 20.4331 87.413 20.7018 88.8157 20.7018H96.4386V12.7056H88.8157C88.4863 12.7056 88.1864 12.6449 87.9009 12.5259C87.6087 12.3983 87.3626 12.2296 87.1498 12.0168C86.9369 11.8039 86.7682 11.5578 86.6406 11.2655C86.5217 10.98 86.461 10.6803 86.461 10.3509C86.461 10.0182 86.5229 9.72924 86.6371 9.46516L86.6407 9.45685L86.6442 9.44851C86.7741 9.13992 86.9432 8.8915 87.1498 8.68494C87.3626 8.47211 87.6087 8.30343 87.9009 8.17589C88.1864 8.0569 88.4863 7.99615 88.8157 7.99615H96.4386V0Z" fill="white"/>
<path d="M98.3191 7.99615V0H114.31V7.99615H98.3191Z" fill="white"/>
<path d="M98.3191 12.7056V20.7018H106.087C106.44 20.7018 106.735 20.766 106.993 20.8778C107.283 21.0032 107.515 21.166 107.708 21.3662L107.72 21.3785L107.732 21.3905C107.947 21.6054 108.117 21.8542 108.245 22.1501C108.359 22.4142 108.421 22.7031 108.421 23.0358C108.421 23.3652 108.36 23.665 108.241 23.9504C108.114 24.2427 107.945 24.4889 107.732 24.7018L107.72 24.7138L107.708 24.7261C107.515 24.9263 107.283 25.0891 106.993 25.2145C106.735 25.3263 106.44 25.3905 106.087 25.3905H98.3191V33.3867H106.087C107.499 33.3867 108.848 33.1199 110.114 32.573C111.355 32.0428 112.453 31.312 113.387 30.3774C114.329 29.4354 115.069 28.3413 115.602 27.1084L115.604 27.1042L115.605 27.1C116.151 25.8211 116.417 24.4598 116.417 23.0358C116.417 21.6343 116.149 20.2923 115.603 19.0285C115.072 17.7857 114.334 16.6889 113.388 15.7563C112.457 14.812 111.363 14.075 110.124 13.5442C108.856 12.9811 107.503 12.7056 106.087 12.7056H98.3191Z" fill="white"/>
<path d="M96.4386 33.3867V25.3905H78.4648V33.3867H96.4386Z" fill="white"/>
<path d="M1.00465 45.688C1.19082 45.3639 1.46662 45.095 1.83206 44.8813C2.2044 44.6606 2.63534 44.5503 3.12489 44.5503C3.62823 44.5503 4.0833 44.671 4.49011 44.9123C4.90382 45.1536 5.22789 45.4949 5.46232 45.9362C5.69675 46.3706 5.81397 46.8774 5.81397 47.4566C5.81397 48.0289 5.69675 48.5391 5.46232 48.9873C5.22789 49.4355 4.90382 49.7837 4.49011 50.0319C4.0833 50.2801 3.62823 50.4042 3.12489 50.4042C2.64223 50.4042 2.21474 50.2974 1.84241 50.0836C1.47697 49.863 1.19772 49.5906 1.00465 49.2666V53.0002H0.0634766V44.6434H1.00465V45.688ZM4.85211 47.4566C4.85211 47.0291 4.76592 46.6568 4.59354 46.3396C4.42116 46.0224 4.18673 45.7811 3.89024 45.6156C3.60065 45.4501 3.28003 45.3674 2.92838 45.3674C2.58363 45.3674 2.26301 45.4536 1.96652 45.626C1.67692 45.7914 1.44249 46.0362 1.26322 46.3603C1.09084 46.6775 1.00465 47.0463 1.00465 47.4669C1.00465 47.8944 1.09084 48.2702 1.26322 48.5943C1.44249 48.9115 1.67692 49.1562 1.96652 49.3286C2.26301 49.4941 2.58363 49.5768 2.92838 49.5768C3.28003 49.5768 3.60065 49.4941 3.89024 49.3286C4.18673 49.1562 4.42116 48.9115 4.59354 48.5943C4.76592 48.2702 4.85211 47.891 4.85211 47.4566Z" fill="white"/>
<path d="M10.4762 45.5639C10.6417 45.2398 10.8761 44.9882 11.1795 44.8089C11.4898 44.6296 11.8656 44.54 12.3069 44.54V45.5122H12.0586C11.0037 45.5122 10.4762 46.0845 10.4762 47.2291V50.3112H9.53505V44.6434H10.4762V45.5639Z" fill="white"/>
<path d="M16.3617 43.7229C16.1824 43.7229 16.0307 43.6609 15.9066 43.5367C15.7825 43.4126 15.7204 43.2609 15.7204 43.0817C15.7204 42.9024 15.7825 42.7507 15.9066 42.6266C16.0307 42.5025 16.1824 42.4404 16.3617 42.4404C16.534 42.4404 16.6788 42.5025 16.796 42.6266C16.9202 42.7507 16.9822 42.9024 16.9822 43.0817C16.9822 43.2609 16.9202 43.4126 16.796 43.5367C16.6788 43.6609 16.534 43.7229 16.3617 43.7229ZM16.8167 44.6434V50.3112H15.8756V44.6434H16.8167Z" fill="white"/>
<path d="M23.0129 49.4424L24.7712 44.6434H25.7744L23.5507 50.3112H22.4544L20.2308 44.6434H21.2443L23.0129 49.4424Z" fill="white"/>
<path d="M28.8311 47.4566C28.8311 46.8774 28.9483 46.3706 29.1828 45.9362C29.4172 45.4949 29.7378 45.1536 30.1446 44.9123C30.5583 44.671 31.0169 44.5503 31.5202 44.5503C32.0167 44.5503 32.4476 44.6572 32.813 44.8709C33.1785 45.0847 33.4508 45.3536 33.6301 45.6777V44.6434H34.5816V50.3112H33.6301V49.2562C33.4439 49.5872 33.1647 49.863 32.7924 50.0836C32.4269 50.2974 31.9994 50.4042 31.5099 50.4042C31.0065 50.4042 30.5515 50.2801 30.1446 50.0319C29.7378 49.7837 29.4172 49.4355 29.1828 48.9873C28.9483 48.5391 28.8311 48.0289 28.8311 47.4566ZM33.6301 47.4669C33.6301 47.0394 33.5439 46.6671 33.3715 46.3499C33.1992 46.0328 32.9647 45.7914 32.6682 45.626C32.3786 45.4536 32.058 45.3674 31.7064 45.3674C31.3547 45.3674 31.0341 45.4501 30.7445 45.6156C30.4549 45.7811 30.2239 46.0224 30.0516 46.3396C29.8792 46.6568 29.793 47.0291 29.793 47.4566C29.793 47.891 29.8792 48.2702 30.0516 48.5943C30.2239 48.9115 30.4549 49.1562 30.7445 49.3286C31.0341 49.4941 31.3547 49.5768 31.7064 49.5768C32.058 49.5768 32.3786 49.4941 32.6682 49.3286C32.9647 49.1562 33.1992 48.9115 33.3715 48.5943C33.5439 48.2702 33.6301 47.8944 33.6301 47.4669Z" fill="white"/>
<path d="M39.8024 45.4191V48.7598C39.8024 49.0356 39.861 49.2321 39.9782 49.3493C40.0954 49.4596 40.2988 49.5148 40.5884 49.5148H41.2814V50.3112H40.4333C39.9093 50.3112 39.5162 50.1905 39.2542 49.9492C38.9922 49.7078 38.8612 49.3114 38.8612 48.7598V45.4191H38.1269V44.6434H38.8612V43.2161H39.8024V44.6434H41.2814V45.4191H39.8024Z" fill="white"/>
<path d="M50.0753 47.2601C50.0753 47.4394 50.0649 47.629 50.0442 47.8289H45.5142C45.5486 48.3874 45.7383 48.8253 46.083 49.1424C46.4347 49.4527 46.8587 49.6079 47.3551 49.6079C47.762 49.6079 48.0998 49.5148 48.3687 49.3286C48.6445 49.1355 48.8376 48.8804 48.9479 48.5633H49.9615C49.8098 49.108 49.5064 49.5527 49.0513 49.8975C48.5963 50.2353 48.0309 50.4042 47.3551 50.4042C46.8173 50.4042 46.3347 50.2836 45.9072 50.0422C45.4866 49.8009 45.1556 49.4596 44.9143 49.0183C44.673 48.5702 44.5523 48.053 44.5523 47.4669C44.5523 46.8809 44.6695 46.3672 44.904 45.9259C45.1384 45.4846 45.4659 45.1467 45.8865 44.9123C46.314 44.671 46.8035 44.5503 47.3551 44.5503C47.893 44.5503 48.3687 44.6675 48.7824 44.902C49.1961 45.1364 49.5133 45.4605 49.734 45.8742C49.9615 46.281 50.0753 46.743 50.0753 47.2601ZM49.1031 47.0636C49.1031 46.705 49.0238 46.3982 48.8652 46.1431C48.7066 45.8811 48.4894 45.6846 48.2136 45.5536C47.9447 45.4157 47.6447 45.3467 47.3138 45.3467C46.838 45.3467 46.4312 45.4984 46.0934 45.8018C45.7624 46.1052 45.5728 46.5258 45.5245 47.0636H49.1031Z" fill="white"/>
<path d="M61.0459 50.4042C60.6115 50.4042 60.2219 50.3318 59.8772 50.187C59.5324 50.0354 59.26 49.8285 59.0601 49.5665C58.8601 49.2976 58.7498 48.9908 58.7291 48.646H59.7013C59.7289 48.9287 59.8599 49.1597 60.0943 49.339C60.3357 49.5182 60.6494 49.6079 61.0355 49.6079C61.3941 49.6079 61.6768 49.5286 61.8836 49.37C62.0905 49.2114 62.1939 49.0114 62.1939 48.7701C62.1939 48.5219 62.0836 48.3392 61.8629 48.222C61.6423 48.0978 61.301 47.9772 60.839 47.86C60.4184 47.7496 60.0737 47.6393 59.8047 47.529C59.5427 47.4118 59.3152 47.2428 59.1221 47.0222C58.936 46.7947 58.8429 46.4982 58.8429 46.1327C58.8429 45.8431 58.9291 45.5777 59.1015 45.3364C59.2738 45.095 59.5186 44.9054 59.8358 44.7675C60.1529 44.6227 60.5149 44.5503 60.9218 44.5503C61.5492 44.5503 62.056 44.7089 62.4421 45.0261C62.8282 45.3433 63.0351 45.7776 63.0627 46.3293H62.1215C62.1008 46.0328 61.9801 45.7949 61.7595 45.6156C61.5458 45.4363 61.2562 45.3467 60.8907 45.3467C60.5529 45.3467 60.284 45.4191 60.084 45.5639C59.884 45.7087 59.7841 45.8983 59.7841 46.1327C59.7841 46.3189 59.8427 46.474 59.9599 46.5982C60.084 46.7154 60.2357 46.8119 60.415 46.8878C60.6011 46.9567 60.8563 47.036 61.1803 47.1256C61.5871 47.236 61.9181 47.3463 62.1732 47.4566C62.4283 47.56 62.6455 47.7186 62.8248 47.9324C63.011 48.1461 63.1075 48.4254 63.1144 48.7701C63.1144 49.0804 63.0282 49.3596 62.8558 49.6079C62.6834 49.8561 62.4387 50.0526 62.1215 50.1974C61.8112 50.3353 61.4527 50.4042 61.0459 50.4042Z" fill="white"/>
<path d="M72.0965 47.2601C72.0965 47.4394 72.0862 47.629 72.0655 47.8289H67.5355C67.5699 48.3874 67.7595 48.8253 68.1043 49.1424C68.4559 49.4527 68.88 49.6079 69.3764 49.6079C69.7832 49.6079 70.1211 49.5148 70.39 49.3286C70.6658 49.1355 70.8589 48.8804 70.9692 48.5633H71.9828C71.8311 49.108 71.5277 49.5527 71.0726 49.8975C70.6175 50.2353 70.0522 50.4042 69.3764 50.4042C68.8386 50.4042 68.356 50.2836 67.9285 50.0422C67.5079 49.8009 67.1769 49.4596 66.9356 49.0183C66.6943 48.5702 66.5736 48.053 66.5736 47.4669C66.5736 46.8809 66.6908 46.3672 66.9252 45.9259C67.1597 45.4846 67.4872 45.1467 67.9078 44.9123C68.3353 44.671 68.8248 44.5503 69.3764 44.5503C69.9143 44.5503 70.39 44.6675 70.8037 44.902C71.2174 45.1364 71.5346 45.4605 71.7552 45.8742C71.9828 46.281 72.0965 46.743 72.0965 47.2601ZM71.1243 47.0636C71.1243 46.705 71.045 46.3982 70.8865 46.1431C70.7279 45.8811 70.5107 45.6846 70.2349 45.5536C69.966 45.4157 69.666 45.3467 69.3351 45.3467C68.8593 45.3467 68.4525 45.4984 68.1146 45.8018C67.7837 46.1052 67.5941 46.5258 67.5458 47.0636H71.1243Z" fill="white"/>
<path d="M75.4694 47.4669C75.4694 46.8809 75.5867 46.3706 75.8211 45.9362C76.0555 45.4949 76.3796 45.1536 76.7933 44.9123C77.2139 44.671 77.6931 44.5503 78.2309 44.5503C78.9273 44.5503 79.4996 44.7193 79.9478 45.0571C80.4029 45.395 80.7028 45.8638 80.8476 46.4637H79.834C79.7375 46.119 79.5479 45.8466 79.2652 45.6466C78.9894 45.4467 78.6446 45.3467 78.2309 45.3467C77.6931 45.3467 77.2587 45.5329 76.9278 45.9052C76.5968 46.2706 76.4313 46.7912 76.4313 47.4669C76.4313 48.1496 76.5968 48.677 76.9278 49.0494C77.2587 49.4217 77.6931 49.6079 78.2309 49.6079C78.6446 49.6079 78.9894 49.5113 79.2652 49.3183C79.541 49.1252 79.7306 48.8494 79.834 48.4909H80.8476C80.6959 49.07 80.3925 49.5355 79.9374 49.8871C79.4824 50.2319 78.9135 50.4042 78.2309 50.4042C77.6931 50.4042 77.2139 50.2836 76.7933 50.0422C76.3796 49.8009 76.0555 49.4596 75.8211 49.0183C75.5867 48.577 75.4694 48.0599 75.4694 47.4669Z" fill="white"/>
<path d="M89.6122 44.6434V50.3112H88.671V49.4734C88.4917 49.763 88.24 49.9905 87.916 50.156C87.5988 50.3146 87.2472 50.3939 86.861 50.3939C86.4197 50.3939 86.0233 50.3043 85.6716 50.125C85.32 49.9388 85.0407 49.663 84.8339 49.2976C84.6339 48.9321 84.5339 48.4874 84.5339 47.9634V44.6434H85.4648V47.8393C85.4648 48.3978 85.6061 48.8287 85.8888 49.1321C86.1715 49.4286 86.5576 49.5768 87.0472 49.5768C87.5505 49.5768 87.947 49.4217 88.2366 49.1114C88.5262 48.8011 88.671 48.3495 88.671 47.7565V44.6434H89.6122Z" fill="white"/>
<path d="M94.6247 45.5639C94.7902 45.2398 95.0246 44.9882 95.328 44.8089C95.6383 44.6296 96.014 44.54 96.4553 44.54V45.5122H96.2071C95.1522 45.5122 94.6247 46.0845 94.6247 47.2291V50.3112H93.6835V44.6434H94.6247V45.5639Z" fill="white"/>
<path d="M100.51 43.7229C100.331 43.7229 100.179 43.6609 100.055 43.5367C99.9309 43.4126 99.8689 43.2609 99.8689 43.0817C99.8689 42.9024 99.9309 42.7507 100.055 42.6266C100.179 42.5025 100.331 42.4404 100.51 42.4404C100.683 42.4404 100.827 42.5025 100.945 42.6266C101.069 42.7507 101.131 42.9024 101.131 43.0817C101.131 43.2609 101.069 43.4126 100.945 43.5367C100.827 43.6609 100.683 43.7229 100.51 43.7229ZM100.965 44.6434V50.3112H100.024V44.6434H100.965Z" fill="white"/>
<path d="M106.2 45.4191V48.7598C106.2 49.0356 106.258 49.2321 106.375 49.3493C106.493 49.4596 106.696 49.5148 106.986 49.5148H107.679V50.3112H106.83C106.306 50.3112 105.913 50.1905 105.651 49.9492C105.389 49.7078 105.258 49.3114 105.258 48.7598V45.4191H104.524V44.6434H105.258V43.2161H106.2V44.6434H107.679V45.4191H106.2Z" fill="white"/>
<path d="M116.183 44.6434L112.77 52.9796H111.798L112.915 50.2491L110.629 44.6434H111.673L113.452 49.2355L115.211 44.6434H116.183Z" fill="white"/>
</svg>
