<svg id="Layer_1" data-name="Layer 1" xmlns="http://www.w3.org/2000/svg" viewBox="0 0 1720.55 612.5"><defs><style>.cls-1{fill:#1c1c1c;stroke:#4aa8ff;}.cls-1,.cls-2{stroke-linejoin:round;stroke-width:4px;}.cls-2{fill:#121212;stroke:#000;}</style></defs><path class="cls-1" d="M-207,224.67,56.53,367.58l58.9,120.49L460.15,606.49,628.7,488.07,1264.33,460l149.31,75V-2H-207Z" transform="translate(304.92 4.01)"/><path class="cls-2" d="M630.68,294.24l-8.79,190.58L462.28,598.34Z" transform="translate(304.92 4.01)"/><path class="cls-2" d="M630.68,294.24l-8.61,189.47,639.67-28.49Z" transform="translate(304.92 4.01)"/><path class="cls-2" d="M124,482.89,459.75,598.34,261.09,374.94Z" transform="translate(304.92 4.01)"/><path class="cls-2" d="M-8.2,115.84l-294.72,55.09L63.73,365.49Z" transform="translate(304.92 4.01)"/><path class="cls-2" d="M124,482.89,258.87,373.78,65.38,368.19Q94.69,425.54,124,482.89Z" transform="translate(304.92 4.01)"/></svg>